HIERARCHY
ROOT Hips
{
	OFFSET 7.7125 38.4228 -161.4020
	CHANNELS 6 Xposition Yposition Zposition Xrotation Yrotation Zrotation
	JOINT Spine
	{
		OFFSET 0.0000 7.4000 0.0000
		CHANNELS 3 Xrotation Yrotation Zrotation
		JOINT Head
		{
			OFFSET 0.0000 16.5127 0.0000
			CHANNELS 3 Xrotation Yrotation Zrotation
			End Site
			{
				OFFSET 0.0000 4.5275 0.0000
			}
		}
		JOINT LeftShoulder
		{
			OFFSET 0.0000 11.0747 0.0000
			CHANNELS 3 Xrotation Yrotation Zrotation
			JOINT LeftArm
			{
				OFFSET 8.2554 0.0000 0.0000
				CHANNELS 3 Xrotation Yrotation Zrotation
				JOINT LeftForeArm
				{
					OFFSET 11.1751 0.0000 0.0000
					CHANNELS 3 Xrotation Yrotation Zrotation
					JOINT LeftHand
					{
						OFFSET 9.4775 0.0000 0.0000
						CHANNELS 3 Xrotation Yrotation Zrotation
						JOINT LeftHandThumb1
						{
							OFFSET 0.0000 0.0000 0.0000
							CHANNELS 3 Xrotation Yrotation Zrotation
							End Site
							{
								OFFSET 0.0000 0.0000 3.9370
							}
						}
						JOINT LeftHand_End
						{
							OFFSET 3.9370 0.0000 0.0000
							CHANNELS 3 Xrotation Yrotation Zrotation
							End Site
							{
								OFFSET 0.0000 0.0000 0.0000
							}
						}
					}
				}
			}
		}
		JOINT RightShoulder
		{
			OFFSET 0.0000 11.0747 0.0000
			CHANNELS 3 Xrotation Yrotation Zrotation
			JOINT RightArm
			{
				OFFSET -8.2554 0.0000 0.0000
				CHANNELS 3 Xrotation Yrotation Zrotation
				JOINT RightForeArm
				{
					OFFSET -11.1751 0.0000 0.0000
					CHANNELS 3 Xrotation Yrotation Zrotation
					JOINT RightHand
					{
						OFFSET -9.4775 0.0000 0.0000
						CHANNELS 3 Xrotation Yrotation Zrotation
						JOINT RightHandThumb1
						{
							OFFSET 0.0000 0.0000 0.0000
							CHANNELS 3 Xrotation Yrotation Zrotation
							End Site
							{
								OFFSET 0.0000 0.0000 3.9370
							}
						}
						JOINT RightHand_End
						{
							OFFSET -3.9370 0.0000 0.0000
							CHANNELS 3 Xrotation Yrotation Zrotation
							End Site
							{
								OFFSET 0.0000 0.0000 0.0000
							}
						}
					}
				}
			}
		}
	}
	JOINT LeftUpLeg
	{
		OFFSET 3.6339 0.0000 0.0000
		CHANNELS 3 Xrotation Yrotation Zrotation
		JOINT LeftLeg
		{
			OFFSET 0.0000 -18.3740 0.0000
			CHANNELS 3 Xrotation Yrotation Zrotation
			JOINT LeftFoot
			{
				OFFSET 0.0000 -17.5024 0.0000
				CHANNELS 3 Xrotation Yrotation Zrotation
				JOINT LeftToeBase
				{
					OFFSET 0.0000 -1.4944 5.5772
					CHANNELS 3 Xrotation Yrotation Zrotation
					End Site
					{
						OFFSET 0.0000 0.0000 2.9527
					}
				}
			}
		}
	}
	JOINT RightUpLeg
	{
		OFFSET -3.6339 0.0000 0.0000
		CHANNELS 3 Xrotation Yrotation Zrotation
		JOINT RightLeg
		{
			OFFSET 0.0000 -18.3740 0.0000
			CHANNELS 3 Xrotation Yrotation Zrotation
			JOINT RightFoot
			{
				OFFSET 0.0000 -17.5024 0.0000
				CHANNELS 3 Xrotation Yrotation Zrotation
				JOINT RightToeBase
				{
					OFFSET 0.0000 -1.4944 5.5772
					CHANNELS 3 Xrotation Yrotation Zrotation
					End Site
					{
						OFFSET 0.0000 0.0000 2.9527
					}
				}
			}
		}
	}
}
MOTION
Frames: 15
Frame Time: 0.008333
17.3601 33.7640 85.8708 -11.0333 -68.9899 -6.2021 19.4622 -17.5543 1.1133 -19.3110 -30.6440 -0.2103 1.2701 24.2335 7.9380 2.5237 -12.8851 -83.6690 60.0580 -63.0579 57.1323 1.5809 9.2142 -9.7791 -0.0000 0.0000 -0.0000 -0.0000 0.0000 -0.0000 11.9133 -11.9451 -8.5635 1.3265 41.3930 79.6675 2.5431 13.9146 -0.6119 2.1198 -10.5722 11.4061 -0.0000 0.0000 -0.0000 -0.0000 0.0000 -0.0000 10.8184 -4.2969 13.6836 55.5472 -0.0000 0.0000 7.4622 -12.8346 -30.9309 -8.1642 0.0000 0.0000 -30.0342 -15.5903 1.7043 29.8362 -0.0000 -0.0000 -10.3969 -8.9682 19.4367 -0.3593 0.0000 0.0000 
16.6693 33.7796 85.9189 -11.7719 -69.6566 -7.3718 19.6507 -16.7134 1.5448 -19.3445 -30.7742 -0.0298 1.4548 24.2539 7.5949 2.7331 -12.4205 -83.8385 58.5395 -61.7746 55.2229 1.5557 9.2731 -9.5666 -0.0000 0.0000 -0.0000 -0.0000 0.0000 -0.0000 11.9730 -11.7420 -8.6145 0.9899 41.3590 79.9148 2.1987 13.4532 -0.5118 2.0995 -10.5104 11.3631 -0.0000 0.0000 -0.0000 -0.0000 0.0000 -0.0000 9.0862 -4.5854 14.1119 59.4567 -0.0000 0.0000 9.1589 -10.9210 -32.9986 1.3449 -0.0000 0.0000 -29.7439 -15.6926 2.6115 31.8284 -0.0000 -0.0000 -10.3688 -8.8317 16.8933 -0.0182 0.0000 0.0000 
15.9729 33.8063 85.9635 -13.0685 -70.5740 -9.0231 19.9227 -15.8841 1.7572 -19.1900 -30.7165 0.3845 1.7057 24.3974 7.2505 2.9721 -11.8613 -83.9474 56.9973 -60.4769 53.2628 1.4878 9.2459 -9.1828 -0.0000 0.0000 -0.0000 -0.0000 0.0000 -0.0000 11.9831 -11.3917 -8.6671 0.5148 41.2573 80.2099 2.2263 12.9452 -0.4990 2.0471 -10.3512 11.2509 -0.0000 0.0000 -0.0000 -0.0000 0.0000 -0.0000 7.4509 -4.4267 14.4372 63.1732 0.0000 0.0000 10.6635 -9.6795 -31.9345 3.5860 -0.0000 -0.0000 -28.9932 -15.4039 3.6504 33.2952 -0.0000 -0.0000 -10.3037 -9.4508 15.3338 0.0664 -0.0000 0.0000 
15.2723 33.8377 85.9970 -14.8294 -71.5410 -11.1131 20.2646 -15.1610 1.8830 -18.9047 -30.6111 0.8906 2.1131 24.6290 6.8690 3.1486 -11.2453 -83.9950 55.3458 -59.2660 51.1938 1.4036 9.2529 -8.6641 -0.0000 0.0000 -0.0000 -0.0000 0.0000 -0.0000 11.8064 -10.9794 -8.7835 0.0313 41.3898 80.5882 2.1504 12.3969 -0.4618 2.0010 -10.3992 10.9547 -0.0000 0.0000 -0.0000 -0.0000 0.0000 -0.0000 6.0118 -4.1605 14.7591 66.6868 0.0000 0.0000 10.0052 -7.8070 -30.5607 2.5348 0.0000 -0.0000 -27.9046 -14.9839 4.7598 34.4195 -0.0000 0.0000 -11.1631 -9.6471 14.3935 0.5762 0.0000 0.0000 
14.5695 33.8824 86.0238 -17.0841 -72.5935 -13.6314 20.5974 -14.5198 1.8663 -18.4287 -30.4431 1.4434 2.5501 24.9115 6.5042 3.3653 -10.6737 -83.9552 53.3708 -58.1346 48.8016 1.3055 9.3048 -8.0230 -0.0000 0.0000 -0.0000 -0.0000 0.0000 -0.0000 11.4162 -10.5858 -8.9535 -0.5012 41.5848 81.0932 2.3410 11.7861 -0.4784 1.9311 -10.3091 10.6698 -0.0000 0.0000 -0.0000 -0.0000 0.0000 -0.0000 4.7364 -3.7713 15.0387 69.8362 -0.0000 0.0000 7.8511 -5.5062 -30.3228 2.2268 0.0000 -0.0000 -26.5888 -14.4802 5.8507 35.3499 -0.0000 0.0000 -12.3794 -8.9298 13.6491 0.5893 0.0000 0.0000 
13.8809 33.9460 86.0361 -19.2745 -73.6042 -16.0796 20.8410 -14.0133 1.8012 -17.8600 -30.1398 2.0667 2.9588 25.2714 6.0935 3.5730 -10.0763 -83.8111 51.3973 -56.7673 46.3346 1.1931 9.1257 -7.4809 -0.0000 0.0000 -0.0000 -0.0000 0.0000 -0.0000 10.9212 -10.2562 -9.0618 -0.9952 41.8781 81.5517 2.4794 11.3409 -0.4879 1.8510 -10.5155 10.0418 -0.0000 0.0000 -0.0000 -0.0000 0.0000 -0.0000 3.3504 -3.5513 15.2790 72.6293 -0.0000 0.0000 5.4813 -3.3245 -30.5846 1.8663 0.0000 0.0000 -25.1549 -13.8517 6.9278 35.7906 -0.0000 0.0000 -13.5307 -8.7691 13.2566 1.1660 -0.0000 -0.0000 
13.2051 34.0294 86.0306 -21.2215 -74.5070 -18.3771 20.9665 -13.6825 1.8582 -17.2575 -29.9511 2.6053 3.4003 25.6520 5.6095 3.7628 -9.5417 -83.5929 49.2127 -55.3293 43.6283 1.0485 8.9850 -6.6838 -0.0000 0.0000 -0.0000 -0.0000 0.0000 -0.0000 10.3928 -10.0191 -9.1946 -1.6013 42.0469 82.0771 2.9437 10.9727 -0.5608 1.7207 -10.5237 9.3405 -0.0000 0.0000 -0.0000 -0.0000 0.0000 -0.0000 1.8158 -3.5591 15.6007 75.0454 0.0000 0.0000 3.4764 -1.4148 -30.9972 1.9845 0.0000 0.0000 -23.6882 -12.9068 8.0915 35.8115 -0.0000 0.0000 -14.4826 -8.8689 13.4776 1.5357 -0.0000 0.0000 
12.5427 34.1356 86.0170 -23.0063 -75.3400 -20.4765 20.9859 -13.4656 1.8608 -16.5648 -29.6956 3.1333 3.7692 26.0318 5.1393 3.9671 -9.0054 -83.3407 46.7313 -53.8519 40.6241 0.9364 8.8226 -6.0827 -0.0000 0.0000 -0.0000 -0.0000 0.0000 -0.0000 9.6883 -9.8115 -9.2616 -1.9642 42.2150 82.5364 3.4324 10.8010 -0.6440 1.5360 -10.6447 8.2595 -0.0000 0.0000 -0.0000 -0.0000 0.0000 -0.0000 0.1640 -3.7548 15.7892 77.0275 -0.0000 -0.0000 2.0650 0.1962 -30.8111 2.1046 -0.0000 -0.0000 -22.2123 -11.9574 9.1952 35.5390 -0.0000 0.0000 -15.2591 -8.8733 13.3750 1.5372 0.0000 -0.0000 
11.8804 34.2610 85.9895 -24.8089 -76.0723 -22.6328 20.9899 -13.3002 1.9180 -15.8408 -29.5144 3.6277 4.1508 26.4059 4.6614 4.0795 -8.5728 -83.0414 44.1387 -52.1982 37.4784 0.8398 8.6166 -5.5878 -0.0000 0.0000 -0.0000 -0.0000 0.0000 -0.0000 9.2544 -9.7375 -9.2525 -2.5097 42.1893 82.9564 4.1196 10.9099 -0.7810 1.2933 -10.5469 7.0311 -0.0000 0.0000 -0.0000 -0.0000 0.0000 -0.0000 -1.5195 -4.0768 16.0061 78.6052 -0.0000 0.0000 0.9036 1.4921 -30.2544 2.6975 0.0000 -0.0000 -20.5743 -11.0540 10.3006 34.8999 -0.0000 0.0000 -15.9002 -8.9451 13.3787 1.5698 0.0000 0.0000 
11.2227 34.4109 85.9641 -26.6021 -76.6620 -24.6945 20.9874 -13.2920 1.9110 -15.1450 -29.4622 4.0918 4.3607 26.7188 4.2748 4.2606 -8.0486 -82.7930 41.6856 -50.2991 34.4172 0.7656 8.5777 -5.1196 -0.0000 0.0000 -0.0000 -0.0000 0.0000 -0.0000 8.7816 -9.6420 -9.1459 -2.8159 42.0974 83.2530 4.3002 11.2881 -0.8433 1.0313 -10.7211 5.5273 -0.0000 0.0000 -0.0000 -0.0000 0.0000 -0.0000 -3.2331 -4.5192 16.0842 79.7984 -0.0000 0.0000 0.0182 2.3925 -28.8743 2.4867 -0.0000 -0.0000 -18.8270 -10.2182 11.2398 33.9664 -0.0000 0.0000 -16.4199 -8.9174 13.1633 1.6341 -0.0000 0.0000 
10.5701 34.5711 85.9354 -28.4392 -77.1902 -26.7693 20.9668 -13.2255 1.8806 -14.4351 -29.4136 4.5030 4.4715 26.8964 4.0146 4.4701 -7.5563 -82.6136 39.1256 -48.3375 31.2863 0.7210 8.5400 -4.8436 -0.0000 0.0000 -0.0000 -0.0000 0.0000 -0.0000 8.5951 -9.7454 -9.0300 -3.3883 41.9032 83.6209 4.5368 11.8093 -0.9303 0.7531 -10.4919 4.1286 -0.0000 0.0000 -0.0000 -0.0000 0.0000 -0.0000 -4.9136 -5.0859 16.0482 80.6380 -0.0000 0.0000 -1.0659 3.0382 -27.2001 2.6862 -0.0000 0.0000 -17.0023 -9.3202 12.0951 32.7889 -0.0000 0.0000 -16.8208 -9.0171 13.1005 1.5589 0.0000 -0.0000 
9.9205 34.7396 85.9063 -30.4829 -77.6691 -28.9431 20.9510 -13.1946 1.7291 -13.7596 -29.3791 4.8848 4.5429 27.0150 3.8624 4.6509 -6.9969 -82.4871 36.7635 -46.2026 28.3359 0.7181 8.5001 -4.8466 -0.0000 0.0000 -0.0000 -0.0000 0.0000 -0.0000 8.3456 -9.8982 -8.8830 -3.8518 41.6938 83.9749 4.1924 12.4280 -0.9038 0.4430 -10.2269 2.4937 -0.0000 0.0000 -0.0000 -0.0000 0.0000 -0.0000 -6.5436 -5.6398 15.8668 81.0981 -0.0000 0.0000 -2.3030 3.5251 -25.3804 3.0994 -0.0000 0.0000 -15.1319 -8.3918 12.7926 31.4673 -0.0000 0.0000 -17.0062 -8.9994 13.4309 1.4248 0.0000 0.0000 
9.2743 34.9158 85.8721 -32.5563 -78.0720 -31.1066 20.9382 -13.2250 1.5498 -13.1338 -29.3110 5.2065 4.5738 27.0468 3.7748 4.8825 -6.5010 -82.3683 34.9010 -43.8609 25.7991 0.7233 8.5665 -4.8442 -0.0000 0.0000 -0.0000 -0.0000 0.0000 -0.0000 8.2143 -10.0831 -8.6983 -4.3381 41.4576 84.3079 3.8811 13.2334 -0.8897 0.2017 -9.6759 1.1997 -0.0000 0.0000 -0.0000 -0.0000 0.0000 -0.0000 -8.0688 -6.3458 15.5218 81.1628 -0.0000 0.0000 -3.5313 4.0930 -23.6056 3.0493 -0.0000 -0.0000 -13.1537 -7.6855 13.3230 29.9882 -0.0000 0.0000 -17.1729 -8.7277 13.3798 1.4935 -0.0000 -0.0000 
8.6335 35.0894 85.8432 -34.9983 -78.5666 -33.5760 20.8712 -13.1732 1.2972 -12.5737 -29.2113 5.4351 4.6266 27.0292 3.7429 5.0927 -5.9162 -82.3437 33.2842 -41.4501 23.4884 0.7429 8.6953 -4.9026 -0.0000 0.0000 -0.0000 -0.0000 0.0000 -0.0000 7.9980 -10.2728 -8.6036 -4.7270 41.1755 84.6956 3.2720 14.1259 -0.7994 -0.0151 -9.0777 -0.0956 -0.0000 0.0000 -0.0000 -0.0000 0.0000 -0.0000 -9.4908 -6.9485 15.0656 80.8706 -0.0000 0.0000 -4.9935 4.6789 -22.3573 3.5438 -0.0000 0.0000 -11.1682 -7.1982 13.7138 28.5242 -0.0000 0.0000 -17.1301 -8.2090 13.3368 1.1577 -0.0000 0.0000 
7.9877 35.2635 85.8198 -38.0752 -79.0156 -36.6178 20.8951 -13.1561 1.0134 -12.1185 -28.9421 5.5702 4.6760 27.0221 3.6993 5.3481 -5.5128 -82.2395 32.0593 -38.9939 21.5093 0.7940 8.8869 -5.1265 -0.0000 0.0000 -0.0000 -0.0000 0.0000 -0.0000 7.9414 -10.4861 -8.4848 -5.2631 40.8927 85.0443 2.9613 15.1084 -0.7725 -0.1589 -8.4564 -1.0801 -0.0000 0.0000 -0.0000 -0.0000 0.0000 -0.0000 -10.7171 -7.5509 14.5036 80.2046 -0.0000 0.0000 -6.3569 5.2308 -21.1146 3.5979 0.0000 0.0000 -9.1041 -6.7339 14.0143 27.0720 -0.0000 0.0000 -17.0274 -7.6772 13.5737 1.0565 -0.0000 0.0000 
